<svg width="33" height="25" viewBox="0 0 33 25" fill="none" xmlns="http://www.w3.org/2000/svg">
<path fill-rule="evenodd" clip-rule="evenodd" d="M32.323 12.5001C32.323 11.6544 31.6374 10.9688 30.7917 10.9688H2.20837C1.36269 10.9688 0.677124 11.6544 0.677124 12.5001C0.677124 13.3458 1.36269 14.0313 2.20837 14.0313H30.7917C31.6374 14.0313 32.323 13.3458 32.323 12.5001Z" fill="#FFD7B7"/>
<path fill-rule="evenodd" clip-rule="evenodd" d="M32.323 2.29175C32.323 1.44606 31.6374 0.760498 30.7917 0.760498H2.20837C1.36269 0.760498 0.677124 1.44606 0.677124 2.29175C0.677124 3.13743 1.36269 3.823 2.20837 3.823H30.7917C31.6374 3.823 32.323 3.13743 32.323 2.29175Z" fill="#FFD7B7"/>
<path fill-rule="evenodd" clip-rule="evenodd" d="M32.323 22.7084C32.323 21.8627 31.6374 21.1772 30.7917 21.1772H2.20837C1.36269 21.1772 0.677124 21.8627 0.677124 22.7084C0.677124 23.5541 1.36269 24.2397 2.20837 24.2397H30.7917C31.6374 24.2397 32.323 23.5541 32.323 22.7084Z" fill="#FFD7B7"/>
</svg>
