<svg width="46" height="38" viewBox="0 0 46 38" fill="none" xmlns="http://www.w3.org/2000/svg">
<g filter="url(#filter0_d_134_9)">
<mask id="path-1-inside-1_134_9" fill="white">
<path d="M37.6123 5.45087C34.8787 4.17884 31.9938 3.27179 29.0299 2.75243C29.0029 2.74709 28.9749 2.7506 28.9499 2.76244C28.925 2.77429 28.9044 2.79386 28.8911 2.81833C28.5222 3.48626 28.1111 4.35725 27.8229 5.04477C24.6279 4.55279 21.3779 4.55279 18.1829 5.04477C17.8622 4.28297 17.5003 3.5397 17.0988 2.81833C17.085 2.79441 17.0643 2.7753 17.0395 2.76353C17.0148 2.75177 16.987 2.7479 16.9601 2.75243C13.9959 3.27071 11.1109 4.1778 8.37763 5.45087C8.35449 5.46071 8.33487 5.47749 8.32141 5.49896C2.85396 13.7795 1.35533 21.8552 2.09146 29.8294C2.09325 29.8492 2.099 29.8684 2.10837 29.8859C2.11773 29.9034 2.13051 29.9187 2.14593 29.931C5.32871 32.3216 8.88908 34.1466 12.675 35.3279C12.7017 35.3357 12.7301 35.3351 12.7564 35.3262C12.7828 35.3173 12.8059 35.3005 12.8226 35.278C13.6343 34.1559 14.3581 32.9714 14.9765 31.7264C14.9852 31.7094 14.9901 31.6907 14.9911 31.6716C14.9922 31.6525 14.9892 31.6334 14.9823 31.6156C14.9755 31.5977 14.9651 31.5815 14.9517 31.5681C14.9382 31.5547 14.9222 31.5443 14.9045 31.5376C13.7685 31.0969 12.6688 30.5656 11.6156 29.9488C11.5963 29.9375 11.58 29.9215 11.5683 29.9023C11.5565 29.883 11.5497 29.8612 11.5483 29.8386C11.5469 29.816 11.551 29.7935 11.5603 29.7729C11.5696 29.7524 11.5838 29.7345 11.6015 29.7208C11.8233 29.5526 12.0412 29.3792 12.2551 29.2007C12.2738 29.1853 12.2964 29.1755 12.3202 29.1724C12.3441 29.1692 12.3684 29.1729 12.3904 29.1829C19.2915 32.3765 26.7618 32.3765 33.582 29.1829C33.6042 29.1725 33.6288 29.1687 33.6531 29.1718C33.6773 29.175 33.7002 29.185 33.7191 29.2007C33.9299 29.3753 34.1513 29.5534 34.3744 29.7208C34.3919 29.7342 34.406 29.7518 34.4154 29.772C34.4247 29.7922 34.429 29.8144 34.428 29.8367C34.427 29.859 34.4206 29.8807 34.4094 29.8999C34.3982 29.9191 34.3826 29.9353 34.3638 29.947C33.313 30.5696 32.2122 31.1011 31.0732 31.5358C31.0554 31.5427 31.0393 31.5533 31.0259 31.5669C31.0125 31.5805 31.002 31.5968 30.9952 31.6148C30.9884 31.6328 30.9855 31.652 30.9865 31.6712C30.9875 31.6904 30.9925 31.7092 31.0011 31.7264C31.6336 32.9696 32.3575 34.1523 33.1533 35.2762C33.1697 35.2991 33.1928 35.3162 33.2192 35.3252C33.2457 35.3341 33.2743 35.3344 33.3009 35.3261C37.0932 34.1484 40.6593 32.3233 43.8458 29.9292C43.8613 29.9181 43.8743 29.9037 43.884 29.8872C43.8937 29.8706 43.8998 29.8521 43.902 29.833C44.7805 20.612 42.4297 12.6022 37.6668 5.50252C37.6557 5.47858 37.6363 5.45958 37.6123 5.44909V5.45087ZM16.0078 24.9723C13.9294 24.9723 12.2182 23.0397 12.2182 20.6637C12.2182 18.2894 13.8978 16.3551 16.0078 16.3551C18.1337 16.3551 19.8308 18.3072 19.7974 20.6654C19.7974 23.0397 18.1178 24.9723 16.0078 24.9723ZM30.019 24.9723C27.9406 24.9723 26.2294 23.0397 26.2294 20.6637C26.2294 18.2894 27.9073 16.3551 30.019 16.3551C32.1449 16.3551 33.842 18.3072 33.8087 20.6654C33.8087 23.0397 32.1466 24.9723 30.019 24.9723Z"/>
</mask>
<path d="M37.6123 5.45087C34.8787 4.17884 31.9938 3.27179 29.0299 2.75243C29.0029 2.74709 28.9749 2.7506 28.9499 2.76244C28.925 2.77429 28.9044 2.79386 28.8911 2.81833C28.5222 3.48626 28.1111 4.35725 27.8229 5.04477C24.6279 4.55279 21.3779 4.55279 18.1829 5.04477C17.8622 4.28297 17.5003 3.5397 17.0988 2.81833C17.085 2.79441 17.0643 2.7753 17.0395 2.76353C17.0148 2.75177 16.987 2.7479 16.9601 2.75243C13.9959 3.27071 11.1109 4.1778 8.37763 5.45087C8.35449 5.46071 8.33487 5.47749 8.32141 5.49896C2.85396 13.7795 1.35533 21.8552 2.09146 29.8294C2.09325 29.8492 2.099 29.8684 2.10837 29.8859C2.11773 29.9034 2.13051 29.9187 2.14593 29.931C5.32871 32.3216 8.88908 34.1466 12.675 35.3279C12.7017 35.3357 12.7301 35.3351 12.7564 35.3262C12.7828 35.3173 12.8059 35.3005 12.8226 35.278C13.6343 34.1559 14.3581 32.9714 14.9765 31.7264C14.9852 31.7094 14.9901 31.6907 14.9911 31.6716C14.9922 31.6525 14.9892 31.6334 14.9823 31.6156C14.9755 31.5977 14.9651 31.5815 14.9517 31.5681C14.9382 31.5547 14.9222 31.5443 14.9045 31.5376C13.7685 31.0969 12.6688 30.5656 11.6156 29.9488C11.5963 29.9375 11.58 29.9215 11.5683 29.9023C11.5565 29.883 11.5497 29.8612 11.5483 29.8386C11.5469 29.816 11.551 29.7935 11.5603 29.7729C11.5696 29.7524 11.5838 29.7345 11.6015 29.7208C11.8233 29.5526 12.0412 29.3792 12.2551 29.2007C12.2738 29.1853 12.2964 29.1755 12.3202 29.1724C12.3441 29.1692 12.3684 29.1729 12.3904 29.1829C19.2915 32.3765 26.7618 32.3765 33.582 29.1829C33.6042 29.1725 33.6288 29.1687 33.6531 29.1718C33.6773 29.175 33.7002 29.185 33.7191 29.2007C33.9299 29.3753 34.1513 29.5534 34.3744 29.7208C34.3919 29.7342 34.406 29.7518 34.4154 29.772C34.4247 29.7922 34.429 29.8144 34.428 29.8367C34.427 29.859 34.4206 29.8807 34.4094 29.8999C34.3982 29.9191 34.3826 29.9353 34.3638 29.947C33.313 30.5696 32.2122 31.1011 31.0732 31.5358C31.0554 31.5427 31.0393 31.5533 31.0259 31.5669C31.0125 31.5805 31.002 31.5968 30.9952 31.6148C30.9884 31.6328 30.9855 31.652 30.9865 31.6712C30.9875 31.6904 30.9925 31.7092 31.0011 31.7264C31.6336 32.9696 32.3575 34.1523 33.1533 35.2762C33.1697 35.2991 33.1928 35.3162 33.2192 35.3252C33.2457 35.3341 33.2743 35.3344 33.3009 35.3261C37.0932 34.1484 40.6593 32.3233 43.8458 29.9292C43.8613 29.9181 43.8743 29.9037 43.884 29.8872C43.8937 29.8706 43.8998 29.8521 43.902 29.833C44.7805 20.612 42.4297 12.6022 37.6668 5.50252C37.6557 5.47858 37.6363 5.45958 37.6123 5.44909V5.45087ZM16.0078 24.9723C13.9294 24.9723 12.2182 23.0397 12.2182 20.6637C12.2182 18.2894 13.8978 16.3551 16.0078 16.3551C18.1337 16.3551 19.8308 18.3072 19.7974 20.6654C19.7974 23.0397 18.1178 24.9723 16.0078 24.9723ZM30.019 24.9723C27.9406 24.9723 26.2294 23.0397 26.2294 20.6637C26.2294 18.2894 27.9073 16.3551 30.019 16.3551C32.1449 16.3551 33.842 18.3072 33.8087 20.6654C33.8087 23.0397 32.1466 24.9723 30.019 24.9723Z" fill="#FFD7B7"/>
<path d="M37.6123 5.45087L37.1904 6.35752L38.6123 7.01916V5.45087H37.6123ZM29.0299 2.75243L28.8362 3.73349L28.8467 3.73557L28.8573 3.73742L29.0299 2.75243ZM28.8911 2.81833L29.7665 3.30186L29.7703 3.29483L28.8911 2.81833ZM27.8229 5.04477L27.6707 6.03312L28.4431 6.15206L28.7452 5.43128L27.8229 5.04477ZM18.1829 5.04477L17.2612 5.43273L17.5639 6.15187L18.335 6.03312L18.1829 5.04477ZM17.0988 2.81833L17.9726 2.33204L17.9686 2.32472L17.9644 2.31746L17.0988 2.81833ZM16.9601 2.75243L16.7944 1.76622L16.7878 1.76737L16.9601 2.75243ZM8.37763 5.45087L8.76894 6.37113L8.78451 6.36451L8.79985 6.35736L8.37763 5.45087ZM8.32141 5.49896L9.15591 6.04996L9.16239 6.04015L9.16864 6.03018L8.32141 5.49896ZM2.09146 29.8294L3.08741 29.7394L3.08723 29.7375L2.09146 29.8294ZM2.14593 29.931L1.52291 30.7132L1.53401 30.722L1.54535 30.7305L2.14593 29.931ZM12.675 35.3279L12.3771 36.2825L12.3852 36.285L12.3933 36.2874L12.675 35.3279ZM12.8226 35.278L13.6254 35.8743L13.6328 35.8641L12.8226 35.278ZM14.9765 31.7264L14.0849 31.2735L14.0809 31.2815L14.9765 31.7264ZM14.9045 31.5376L14.5428 32.4699L14.5507 32.4729L14.9045 31.5376ZM11.6156 29.9488L11.1099 30.8115L11.1102 30.8117L11.6156 29.9488ZM11.6015 29.7208L10.9972 28.924L10.9918 28.9282L11.6015 29.7208ZM12.2551 29.2007L11.62 28.4283L11.6144 28.4329L12.2551 29.2007ZM12.3904 29.1829L12.8104 28.2753L12.8057 28.2732L12.3904 29.1829ZM33.582 29.1829L33.158 28.2773L33.158 28.2773L33.582 29.1829ZM33.7191 29.2007L33.0791 29.9691L33.0813 29.971L33.7191 29.2007ZM34.3744 29.7208L34.9823 28.9267L34.9746 28.9209L34.3744 29.7208ZM34.3638 29.947L34.8736 30.8073L34.8837 30.8013L34.8937 30.7951L34.3638 29.947ZM31.0732 31.5358L30.7166 30.6015L30.7112 30.6036L31.0732 31.5358ZM31.0011 31.7264L30.1085 32.1772L30.1099 32.1798L31.0011 31.7264ZM33.1533 35.2762L32.3372 35.8541L32.3399 35.8578L33.1533 35.2762ZM33.3009 35.3261L33.0044 34.3711L33.0016 34.3719L33.3009 35.3261ZM43.8458 29.9292L43.2627 29.1168L43.2538 29.1231L43.2451 29.1297L43.8458 29.9292ZM43.902 29.833L44.8956 29.9463L44.8966 29.9371L44.8975 29.9278L43.902 29.833ZM37.6668 5.50252L36.76 5.92403L36.7929 5.99482L36.8364 6.05964L37.6668 5.50252ZM37.6123 5.44909L38.0133 4.53301L36.6123 3.91975V5.44909H37.6123ZM19.7974 20.6654L18.7975 20.6513L18.7974 20.6584V20.6654H19.7974ZM33.8087 20.6654L32.8088 20.6513L32.8087 20.6584V20.6654H33.8087ZM38.0342 4.54422C35.2214 3.23536 32.2527 2.30193 29.2025 1.76744L28.8573 3.73742C31.7349 4.24165 34.536 5.12232 37.1904 6.35752L38.0342 4.54422ZM29.2236 1.77137C28.9856 1.72438 28.7394 1.75542 28.521 1.8591L29.3788 3.66578C29.2104 3.74578 29.0201 3.7698 28.8362 3.73349L29.2236 1.77137ZM28.521 1.8591C28.3028 1.96268 28.1254 2.13257 28.0119 2.34183L29.7703 3.29483C29.6834 3.45515 29.5471 3.58589 29.3788 3.66578L28.521 1.8591ZM28.0158 2.33482C27.6263 3.04 27.1999 3.94428 26.9006 4.65825L28.7452 5.43128C29.0223 4.77021 29.4181 3.93253 29.7665 3.30185L28.0158 2.33482ZM27.9751 4.05642C24.6792 3.5489 21.3266 3.5489 18.0307 4.05642L18.335 6.03312C21.4292 5.55667 24.5766 5.55667 27.6707 6.03312L27.9751 4.05642ZM19.1045 4.65681C18.7697 3.86143 18.3919 3.08532 17.9726 2.33204L16.225 3.30462C16.6087 3.99407 16.9547 4.70452 17.2612 5.43273L19.1045 4.65681ZM17.9644 2.31746C17.8499 2.11973 17.6777 1.95954 17.4685 1.86019L16.6106 3.66687C16.4509 3.59106 16.3201 3.46908 16.2333 3.31921L17.9644 2.31746ZM17.4685 1.86019C17.2591 1.76077 17.0239 1.7277 16.7944 1.76625L17.1257 3.73861C16.9502 3.76809 16.7704 3.74276 16.6106 3.66687L17.4685 1.86019ZM16.7878 1.76737C13.7371 2.30079 10.768 3.23435 7.95541 4.54438L8.79985 6.35736C11.4537 5.12126 14.2547 4.24063 17.1323 3.73749L16.7878 1.76737ZM7.98632 4.53061C7.77345 4.62113 7.59536 4.77446 7.47418 4.96774L9.16864 6.03018C9.07438 6.18052 8.93553 6.30029 8.76894 6.37113L7.98632 4.53061ZM7.4869 4.94796C1.88526 13.4318 0.340195 21.7374 1.0957 29.9214L3.08723 29.7375C2.37046 21.9731 3.82265 14.1273 9.15591 6.04996L7.4869 4.94796ZM1.09552 29.9194C1.10938 30.0728 1.15398 30.2222 1.22716 30.3586L2.98958 29.4132C3.04402 29.5147 3.07713 29.6257 3.08741 29.7394L1.09552 29.9194ZM1.22716 30.3586C1.30035 30.4951 1.40075 30.6159 1.52291 30.7132L2.76894 29.1488C2.86027 29.2215 2.93512 29.3117 2.98958 29.4132L1.22716 30.3586ZM1.54535 30.7305C4.8191 33.1895 8.48179 35.067 12.3771 36.2825L12.9728 34.3732C9.29637 33.2261 5.83832 31.4537 2.7465 29.1314L1.54535 30.7305ZM12.3933 36.2874C12.6172 36.3531 12.8557 36.3482 13.0766 36.2736L12.4363 34.3788C12.6045 34.322 12.7862 34.3183 12.9566 34.3683L12.3933 36.2874ZM13.0766 36.2736C13.2973 36.199 13.4882 36.0589 13.6253 35.8743L12.0198 34.6817C12.1235 34.5421 12.2682 34.4356 12.4363 34.3788L13.0766 36.2736ZM13.6328 35.8641C14.4749 34.6999 15.2278 33.4684 15.8721 32.1712L14.0809 31.2815C13.4884 32.4744 12.7936 33.6118 12.0123 34.6919L13.6328 35.8641ZM15.8681 32.1792C15.9402 32.0374 15.9815 31.8823 15.9898 31.7241L13.9925 31.6191C13.9988 31.4991 14.0302 31.3814 14.0849 31.2735L15.8681 32.1792ZM15.9898 31.7241C15.9981 31.5659 15.9733 31.4075 15.9167 31.2591L14.048 31.972C14.005 31.8593 13.9862 31.7391 13.9925 31.6191L15.9898 31.7241ZM15.9167 31.2591C15.86 31.1107 15.7726 30.975 15.6594 30.8616L14.2439 32.2746C14.1575 32.188 14.0911 32.0848 14.048 31.972L15.9167 31.2591ZM15.6594 30.8616C15.5461 30.7481 15.4095 30.6594 15.2583 30.6022L14.5507 32.4729C14.4348 32.4291 14.3304 32.3612 14.2439 32.2746L15.6594 30.8616ZM15.2662 30.6053C14.18 30.1839 13.1283 29.6758 12.121 29.0859L11.1102 30.8117C12.2093 31.4554 13.3571 32.0099 14.5428 32.4699L15.2662 30.6053ZM12.1213 29.0861C12.2453 29.1588 12.3481 29.2605 12.4217 29.381L10.7149 30.4236C10.812 30.5825 10.9473 30.7162 11.1099 30.8115L12.1213 29.0861ZM12.4217 29.381C12.4953 29.5014 12.5378 29.6375 12.5464 29.7771L10.5502 29.9001C10.5616 30.0848 10.6178 30.2646 10.7149 30.4236L12.4217 29.381ZM12.5464 29.7771C12.555 29.9166 12.5295 30.0566 12.4716 30.1848L10.6491 29.3611C10.5726 29.5304 10.5388 29.7154 10.5502 29.9001L12.5464 29.7771ZM12.4716 30.1848C12.4136 30.313 12.3246 30.4262 12.2112 30.5134L10.9918 28.9282C10.8429 29.0427 10.7256 29.1917 10.6491 29.3611L12.4716 30.1848ZM12.2058 30.5175C12.44 30.3399 12.67 30.1569 12.8958 29.9685L11.6144 28.4329C11.4124 28.6014 11.2066 28.7652 10.9972 28.924L12.2058 30.5175ZM12.8902 29.9731C12.7653 30.0758 12.6133 30.1424 12.4508 30.1638L12.1897 28.1809C11.9794 28.2086 11.7823 28.2948 11.62 28.4283L12.8902 29.9731ZM12.4508 30.1638C12.2882 30.1852 12.1234 30.1603 11.975 30.0926L12.8057 28.2732C12.6135 28.1854 12.4001 28.1532 12.1897 28.1809L12.4508 30.1638ZM11.9704 30.0904C19.1363 33.4066 26.9156 33.4087 34.0061 30.0885L33.158 28.2773C26.608 31.3443 19.4466 31.3464 12.8104 28.2754L11.9704 30.0904ZM34.0061 30.0885C33.8563 30.1587 33.6891 30.1849 33.5242 30.1635L33.782 28.1802C33.5686 28.1524 33.3521 28.1863 33.158 28.2773L34.0061 30.0885ZM33.5242 30.1635C33.3593 30.142 33.2051 30.0741 33.0791 29.9691L34.359 28.4323C34.1952 28.2959 33.9953 28.2079 33.782 28.1802L33.5242 30.1635ZM33.0813 29.971C33.2989 30.1511 33.5336 30.3401 33.7742 30.5207L34.9746 28.9209C34.7689 28.7666 34.5609 28.5994 34.3568 28.4304L33.0813 29.971ZM33.7665 30.5148C33.6544 30.429 33.566 30.3178 33.5077 30.1918L35.323 29.3523C35.246 29.1858 35.1295 29.0395 34.9822 28.9267L33.7665 30.5148ZM33.5077 30.1918C33.4494 30.0658 33.4227 29.928 33.4291 29.7902L35.4269 29.8833C35.4354 29.7009 35.3999 29.5187 35.323 29.3523L33.5077 30.1918ZM33.4291 29.7902C33.4355 29.6523 33.475 29.5174 33.545 29.3971L35.2738 30.4027C35.3661 30.244 35.4184 30.0657 35.4269 29.8833L33.4291 29.7902ZM33.545 29.3971C33.615 29.2767 33.7138 29.174 33.8339 29.0989L34.8937 30.7951C35.0513 30.6966 35.1814 30.5616 35.2738 30.4027L33.545 29.3971ZM33.8541 29.0867C32.8521 29.6804 31.8025 30.1871 30.7166 30.6015L31.4297 32.4701C32.622 32.0151 33.774 31.4588 34.8736 30.8073L33.8541 29.0867ZM30.7112 30.6036C30.5612 30.6618 30.426 30.7511 30.314 30.8646L31.7378 32.2692C31.6527 32.3554 31.5497 32.4235 31.4351 32.468L30.7112 30.6036ZM30.314 30.8646C30.202 30.9781 30.1157 31.1134 30.0598 31.2612L31.9307 31.9683C31.8884 32.0802 31.8229 32.1829 31.7378 32.2692L30.314 30.8646ZM30.0598 31.2612C30.004 31.409 29.9795 31.5667 29.9879 31.7241L31.9851 31.6183C31.9914 31.7373 31.9729 31.8565 31.9307 31.9683L30.0598 31.2612ZM29.9879 31.7241C29.9962 31.8816 30.0372 32.0359 30.1085 32.1772L31.8938 31.2756C31.9478 31.3826 31.9788 31.4993 31.9851 31.6183L29.9879 31.7241ZM30.1099 32.1798C30.7659 33.4694 31.5154 34.6936 32.3372 35.8541L33.9694 34.6983C33.1995 33.611 32.5013 32.4698 31.8924 31.2729L30.1099 32.1798ZM32.3399 35.8578C32.4773 36.05 32.6723 36.1959 32.8991 36.2725L33.5394 34.3778C33.7133 34.4366 33.8622 34.5482 33.9668 34.6946L32.3399 35.8578ZM32.8991 36.2725C33.1261 36.3493 33.3716 36.352 33.6002 36.2802L33.0016 34.3719C33.177 34.3169 33.3653 34.319 33.5394 34.3778L32.8991 36.2725ZM33.5975 36.2811C37.4997 35.0693 41.1686 33.1914 44.4465 30.7287L43.2451 29.1297C40.15 31.4552 36.6866 33.2276 33.0044 34.3711L33.5975 36.2811ZM44.4289 30.7416C44.559 30.6482 44.6673 30.5288 44.7473 30.3918L43.0207 29.3825C43.0814 29.2787 43.1636 29.1879 43.2627 29.1168L44.4289 30.7416ZM44.7473 30.3918C44.8274 30.2548 44.8777 30.103 44.8956 29.9463L42.9085 29.7197C42.922 29.6013 42.96 29.4864 43.0207 29.3825L44.7473 30.3918ZM44.8975 29.9278C45.7994 20.461 43.3796 12.223 38.4972 4.94541L36.8364 6.05964C41.4799 12.9813 43.7615 20.763 42.9065 29.7382L44.8975 29.9278ZM38.5736 5.08102C38.4608 4.83831 38.2628 4.6422 38.0133 4.53301L37.2113 6.36517C37.0098 6.27696 36.8505 6.11885 36.76 5.92403L38.5736 5.08102ZM36.6123 5.44909V5.45087H38.6123V5.44909H36.6123ZM16.0078 23.9723C14.5966 23.9723 13.2182 22.6098 13.2182 20.6637H11.2182C11.2182 23.4696 13.2622 25.9723 16.0078 25.9723V23.9723ZM13.2182 20.6637C13.2182 18.7133 14.5703 17.3551 16.0078 17.3551V15.3551C13.2253 15.3551 11.2182 17.8655 11.2182 20.6637H13.2182ZM16.0078 17.3551C17.4674 17.3551 18.8246 18.7359 18.7975 20.6513L20.7973 20.6796C20.837 17.8785 18.7999 15.3551 16.0078 15.3551V17.3551ZM18.7974 20.6654C18.7974 22.6153 17.4459 23.9723 16.0078 23.9723V25.9723C18.7898 25.9723 20.7974 23.4642 20.7974 20.6654H18.7974ZM30.019 23.9723C28.6078 23.9723 27.2294 22.6098 27.2294 20.6637H25.2294C25.2294 23.4696 27.2734 25.9723 30.019 25.9723V23.9723ZM27.2294 20.6637C27.2294 18.713 28.58 17.3551 30.019 17.3551V15.3551C27.2345 15.3551 25.2294 17.8658 25.2294 20.6637H27.2294ZM30.019 17.3551C31.4786 17.3551 32.8359 18.7359 32.8088 20.6513L34.8086 20.6796C34.8482 17.8785 32.8112 15.3551 30.019 15.3551V17.3551ZM32.8087 20.6654C32.8087 22.6185 31.4719 23.9723 30.019 23.9723V25.9723C32.8214 25.9723 34.8087 23.461 34.8087 20.6654H32.8087Z" fill="black" mask="url(#path-1-inside-1_134_9)"/>
</g>
<defs>
<filter id="filter0_d_134_9" x="-0.083313" y="0.75" width="46.1667" height="36.5833" filterUnits="userSpaceOnUse" color-interpolation-filters="sRGB">
<feFlood flood-opacity="0" result="BackgroundImageFix"/>
<feColorMatrix in="SourceAlpha" type="matrix" values="0 0 0 0 0 0 0 0 0 0 0 0 0 0 0 0 0 0 127 0" result="hardAlpha"/>
<feOffset/>
<feGaussianBlur stdDeviation="1"/>
<feComposite in2="hardAlpha" operator="out"/>
<feColorMatrix type="matrix" values="0 0 0 0 0.229167 0 0 0 0 0.0315538 0 0 0 0 0.0185243 0 0 0 1 0"/>
<feBlend mode="normal" in2="BackgroundImageFix" result="effect1_dropShadow_134_9"/>
<feBlend mode="normal" in="SourceGraphic" in2="effect1_dropShadow_134_9" result="shape"/>
</filter>
</defs>
</svg>
