<svg width="44" height="37" viewBox="0 0 44 37" fill="none" xmlns="http://www.w3.org/2000/svg">
<g filter="url(#filter0_d_134_7)">
<path d="M40.802 6.93562C40.9131 6.78081 40.749 6.58093 40.5714 6.64979C39.3088 7.13917 37.9893 7.46935 36.6433 7.63207C38.142 6.73675 39.2985 5.37384 39.9397 3.76027C40.0051 3.5959 39.8256 3.44911 39.6707 3.53462C38.2779 4.30385 36.7756 4.85776 35.2152 5.17676C35.1499 5.19012 35.0826 5.16788 35.0367 5.11949C33.8657 3.88386 32.3242 3.06116 30.6438 2.77686C28.9281 2.48659 27.1645 2.774 25.6298 3.59401C24.095 4.41402 22.8758 5.72025 22.1634 7.30784C21.486 8.81732 21.3032 10.5 21.6373 12.116C21.6632 12.2414 21.5651 12.3597 21.4373 12.3518C18.4012 12.1632 15.4348 11.3557 12.7207 9.9778C10.0136 8.60342 7.61639 6.69142 5.67505 4.35973C5.58889 4.25625 5.4256 4.26964 5.36282 4.38877C4.75875 5.53506 4.44247 6.8127 4.44333 8.11123C4.44087 9.4038 4.75808 10.6769 5.36669 11.8172C5.9753 12.9575 6.85644 13.9297 7.93166 14.6471C6.79139 14.616 5.67334 14.3341 4.65655 13.823C4.52551 13.7572 4.36833 13.851 4.37515 13.9975C4.45444 15.7018 5.08014 17.4129 6.16318 18.7257C7.31571 20.1227 8.9154 21.0787 10.6917 21.4321C10.0079 21.6402 9.298 21.7499 8.58333 21.7579C8.19436 21.7534 7.80615 21.7247 7.42094 21.672C7.27811 21.6525 7.16148 21.7881 7.21148 21.9233C7.74128 23.356 8.67724 24.6062 9.90789 25.5187C11.2236 26.4943 12.8107 27.0355 14.4483 27.0671C11.683 29.243 8.26877 30.4305 4.74999 30.4404C4.38843 30.4416 4.02702 30.4299 3.66647 30.4053C3.46328 30.3914 3.36984 30.6622 3.54497 30.7661C6.97344 32.8007 10.8921 33.8761 14.8892 33.8712C17.8402 33.9019 20.7678 33.3442 23.501 32.2307C26.2341 31.1173 28.718 29.4703 30.8075 27.3862C32.897 25.302 34.5503 22.8224 35.6707 20.0921C36.7912 17.3619 37.3564 14.4357 37.3333 11.4846V10.5649C37.3333 10.5044 37.362 10.4475 37.4102 10.411C38.7103 9.42941 39.8536 8.25748 40.802 6.93562Z" fill="#FFD7B7"/>
<path d="M40.802 6.93562C40.9131 6.78081 40.749 6.58093 40.5714 6.64979C39.3088 7.13917 37.9893 7.46935 36.6433 7.63207C38.142 6.73675 39.2985 5.37384 39.9397 3.76027C40.0051 3.5959 39.8256 3.44911 39.6707 3.53462C38.2779 4.30385 36.7756 4.85776 35.2152 5.17676C35.1499 5.19012 35.0826 5.16788 35.0367 5.11949C33.8657 3.88386 32.3242 3.06116 30.6438 2.77686C28.9281 2.48659 27.1645 2.774 25.6298 3.59401C24.095 4.41402 22.8758 5.72025 22.1634 7.30784C21.486 8.81732 21.3032 10.5 21.6373 12.116C21.6632 12.2414 21.5651 12.3597 21.4373 12.3518C18.4012 12.1632 15.4348 11.3557 12.7207 9.9778C10.0136 8.60342 7.61639 6.69142 5.67505 4.35973C5.58889 4.25625 5.4256 4.26964 5.36282 4.38877C4.75875 5.53506 4.44247 6.8127 4.44333 8.11123C4.44087 9.4038 4.75808 10.6769 5.36669 11.8172C5.9753 12.9575 6.85644 13.9297 7.93166 14.6471C6.79139 14.616 5.67334 14.3341 4.65655 13.823C4.52551 13.7572 4.36833 13.851 4.37515 13.9975C4.45444 15.7018 5.08014 17.4129 6.16318 18.7257C7.31571 20.1227 8.9154 21.0787 10.6917 21.4321C10.0079 21.6402 9.298 21.7499 8.58333 21.7579C8.19436 21.7534 7.80615 21.7247 7.42094 21.672C7.27811 21.6525 7.16148 21.7881 7.21148 21.9233C7.74128 23.356 8.67724 24.6062 9.90789 25.5187C11.2236 26.4943 12.8107 27.0355 14.4483 27.0671C11.683 29.243 8.26877 30.4305 4.74999 30.4404C4.38843 30.4416 4.02702 30.4299 3.66647 30.4053C3.46328 30.3914 3.36984 30.6622 3.54497 30.7661C6.97344 32.8007 10.8921 33.8761 14.8892 33.8712C17.8402 33.9019 20.7678 33.3442 23.501 32.2307C26.2341 31.1173 28.718 29.4703 30.8075 27.3862C32.897 25.302 34.5503 22.8224 35.6707 20.0921C36.7912 17.3619 37.3564 14.4357 37.3333 11.4846V10.5649C37.3333 10.5044 37.362 10.4475 37.4102 10.411C38.7103 9.42941 39.8536 8.25748 40.802 6.93562Z" stroke="black" stroke-linejoin="round"/>
</g>
<defs>
<filter id="filter0_d_134_7" x="0.953613" y="0.166748" width="42.3848" height="36.2056" filterUnits="userSpaceOnUse" color-interpolation-filters="sRGB">
<feFlood flood-opacity="0" result="BackgroundImageFix"/>
<feColorMatrix in="SourceAlpha" type="matrix" values="0 0 0 0 0 0 0 0 0 0 0 0 0 0 0 0 0 0 127 0" result="hardAlpha"/>
<feOffset/>
<feGaussianBlur stdDeviation="1"/>
<feComposite in2="hardAlpha" operator="out"/>
<feColorMatrix type="matrix" values="0 0 0 0 0.229167 0 0 0 0 0.0315538 0 0 0 0 0.0185243 0 0 0 1 0"/>
<feBlend mode="normal" in2="BackgroundImageFix" result="effect1_dropShadow_134_7"/>
<feBlend mode="normal" in="SourceGraphic" in2="effect1_dropShadow_134_7" result="shape"/>
</filter>
</defs>
</svg>
